<svg width="44" height="44" viewBox="0 0 44 44" fill="none" xmlns="http://www.w3.org/2000/svg">
<g clip-path="url(#clip0_2101_396)">
<path d="M33.1973 6.21181C30.97 2.41554 26.6582 0.000976562 21.9975 0.000976562C16.0719 0.000976562 10.9214 3.89177 9.55862 9.22099C5.21584 9.69359 1.83374 13.1891 1.83374 17.415C1.83374 21.9623 5.75031 25.6641 10.5622 25.6641H31.8035C37.516 25.6641 42.1629 21.2783 42.1629 15.8855C42.1629 10.9584 38.2842 6.84252 33.1973 6.21181Z" fill="#605DBA"/>
<path d="M42.1629 35.7467H29.3305V34.3719C29.3296 33.5212 28.9912 32.7056 28.3897 32.1041C27.7882 31.5026 26.9726 31.1642 26.1219 31.1633H23.8311V24.748C23.8311 24.2617 23.6379 23.7953 23.294 23.4514C22.9502 23.1075 22.4838 22.9143 21.9974 22.9143C21.5111 22.9143 21.0447 23.1075 20.7008 23.4514C20.3569 23.7953 20.1637 24.2617 20.1637 24.748V31.1633H17.8729C17.0222 31.1642 16.2067 31.5026 15.6051 32.1041C15.0036 32.7056 14.6653 33.5212 14.6644 34.3719V35.7467H1.83198C1.34566 35.7467 0.879251 35.9399 0.535367 36.2838C0.191483 36.6277 -0.00170898 37.0941 -0.00170898 37.5804C-0.00170898 38.0667 0.191483 38.5331 0.535367 38.877C0.879251 39.2209 1.34566 39.4141 1.83198 39.4141H14.6661V40.7889C14.6679 41.6389 15.0064 42.4535 15.6074 43.0545C16.2084 43.6555 17.023 43.9939 17.8729 43.9957H26.1219C26.9728 43.9944 27.7883 43.6557 28.3898 43.0539C28.9913 42.4521 29.3296 41.6363 29.3305 40.7855V39.4107H42.1629C42.6492 39.4107 43.1156 39.2175 43.4595 38.8736C43.8034 38.5297 43.9966 38.0633 43.9966 37.577C43.9966 37.0906 43.8034 36.6242 43.4595 36.2803C43.1156 35.9365 42.6492 35.7433 42.1629 35.7433V35.7467Z" fill="#F857A6"/>
</g>
<defs>
<clipPath id="clip0_2101_396">
<rect width="44" height="44" fill="white"/>
</clipPath>
</defs>
</svg>
