<svg width="44" height="44" viewBox="0 0 44 44" fill="none" xmlns="http://www.w3.org/2000/svg">
<g clip-path="url(#clip0_2101_391)">
<path d="M32.0838 20.166C29.7267 20.1657 27.4224 20.8643 25.4624 22.1736C23.5023 23.4828 21.9745 25.3439 21.0722 27.5215C20.1698 29.6991 19.9335 32.0953 20.393 34.4072C20.8525 36.7191 21.9872 38.8428 23.6537 40.5098C25.3202 42.1768 27.4436 43.3121 29.7554 43.7723C32.0672 44.2325 34.4635 43.9968 36.6413 43.0951C38.8191 42.1934 40.6806 40.6661 41.9905 38.7064C43.3003 36.7468 43.9996 34.4427 43.9999 32.0855C43.9963 28.926 42.7398 25.8969 40.506 23.6624C38.2722 21.4279 35.2434 20.1706 32.0838 20.166ZM38.5017 29.6191L32.0856 36.953C31.9201 37.142 31.7176 37.295 31.4905 37.4023C31.2634 37.5096 31.0166 37.5691 30.7656 37.577H30.7054C30.22 37.5765 29.7546 37.3837 29.4112 37.0407L25.7451 33.3746C25.5748 33.2043 25.4397 33.0021 25.3475 32.7796C25.2554 32.5571 25.2079 32.3186 25.2079 32.0778C25.2079 31.837 25.2554 31.5985 25.3475 31.376C25.4397 31.1535 25.5748 30.9513 25.7451 30.781C26.089 30.4371 26.5555 30.2439 27.0419 30.2439C27.2827 30.2439 27.5212 30.2913 27.7437 30.3835C27.9662 30.4756 28.1684 30.6107 28.3387 30.781L30.6177 33.0618L35.7499 27.2077C35.9039 27.0114 36.0964 26.8486 36.3154 26.7293C36.5345 26.6099 36.7757 26.5365 37.0241 26.5136C37.2725 26.4906 37.523 26.5186 37.7603 26.5958C37.9975 26.673 38.2165 26.7978 38.4039 26.9625C38.5912 27.1273 38.743 27.3285 38.8499 27.5539C38.9568 27.7794 39.0165 28.0242 39.0255 28.2736C39.0345 28.5229 38.9925 28.7714 38.9022 29.004C38.8118 29.2365 38.6749 29.4482 38.4999 29.626L38.5017 29.6191Z" fill="#F857A6"/>
<path d="M30.58 5.55491L15.9122 0.0549075C15.6984 -0.0189535 15.466 -0.0189535 15.2522 0.0549075L0.58266 5.55491C0.410408 5.62298 0.262674 5.74139 0.158736 5.89469C0.054797 6.048 -0.00051964 6.22907 3.67907e-06 6.41428V18.2032C3.67907e-06 34.9232 15.235 38.4432 15.3828 38.4844C15.5157 38.5096 15.6521 38.5096 15.785 38.4844C16.4162 38.3369 17.035 38.1409 17.6361 37.8983C16.8838 36.0528 16.4979 34.0785 16.5 32.0855C16.5025 28.111 18.0217 24.2872 20.7475 21.3946C23.4734 18.502 27.2004 16.7587 31.1678 16.5205V6.41944C31.1675 6.23373 31.1112 6.05244 31.0064 5.89916C30.9015 5.74588 30.7529 5.62772 30.58 5.56006V5.55491Z" fill="#605DBA"/>
</g>
<defs>
<clipPath id="clip0_2101_391">
<rect width="44" height="44" fill="white"/>
</clipPath>
</defs>
</svg>
