<svg width="44" height="44" viewBox="0 0 44 44" fill="none" xmlns="http://www.w3.org/2000/svg">
<g clip-path="url(#clip0_2101_386)">
<path d="M27.955 21.9434C27.6924 21.9427 27.4356 21.8669 27.2147 21.7249C26.9939 21.583 26.8183 21.3807 26.7088 21.1421C26.5993 20.9035 26.5603 20.6386 26.5966 20.3785C26.6329 20.1185 26.7428 19.8743 26.9135 19.6748L28.8968 17.3598L26.9135 15.0483C26.7931 14.9117 26.701 14.7526 26.6427 14.5801C26.5843 14.4076 26.5607 14.2253 26.5734 14.0437C26.586 13.862 26.6346 13.6847 26.7163 13.522C26.7981 13.3593 26.9113 13.2145 27.0495 13.0959C27.1876 12.9773 27.348 12.8874 27.5212 12.8313C27.6944 12.7751 27.877 12.754 28.0584 12.769C28.2399 12.784 28.4165 12.835 28.5782 12.9188C28.7398 13.0027 28.8831 13.1178 28.9999 13.2575L31.7497 16.4661C31.9636 16.7154 32.0812 17.0331 32.0812 17.3615C32.0812 17.69 31.9636 18.0077 31.7497 18.2569L28.9999 21.4656C28.8705 21.6159 28.7101 21.7364 28.5297 21.8189C28.3494 21.9013 28.1533 21.9438 27.955 21.9434ZM16.0432 21.9434C15.8449 21.9438 15.6488 21.9013 15.4685 21.8189C15.2881 21.7364 15.1277 21.6159 14.9983 21.4656L12.2485 18.2569C12.0346 18.0077 11.917 17.69 11.917 17.3615C11.917 17.0331 12.0346 16.7154 12.2485 16.4661L14.9983 13.2575C15.1159 13.1204 15.2593 13.0078 15.4204 12.9261C15.5815 12.8444 15.7572 12.7953 15.9373 12.7815C16.1174 12.7677 16.2984 12.7895 16.4701 12.8456C16.6417 12.9018 16.8007 12.9912 16.9378 13.1088C17.0749 13.2264 17.1875 13.3699 17.2692 13.531C17.3508 13.6921 17.4 13.8677 17.4138 14.0478C17.4276 14.2279 17.4058 14.4089 17.3496 14.5806C17.2934 14.7523 17.204 14.9112 17.0864 15.0483L15.1031 17.3598L17.0864 19.6731C17.2577 19.8727 17.3682 20.1172 17.4047 20.3776C17.4412 20.6381 17.4022 20.9036 17.2924 21.1425C17.1826 21.3815 17.0065 21.584 16.7851 21.7259C16.5637 21.8679 16.3062 21.9433 16.0432 21.9434ZM20.3174 24.6588C20.1413 24.6183 19.975 24.5434 19.8278 24.4386C19.6806 24.3337 19.5556 24.2008 19.4598 24.0476C19.3641 23.8944 19.2994 23.7238 19.2697 23.5455C19.2399 23.3673 19.2455 23.185 19.2863 23.0089L22.036 11.0937C22.1181 10.7382 22.338 10.4298 22.6474 10.2365C22.9568 10.0431 23.3304 9.98053 23.6859 10.0626C24.0414 10.1446 24.3498 10.3645 24.5432 10.674C24.7366 10.9834 24.7991 11.3569 24.7171 11.7125L21.9673 23.6276C21.9268 23.8037 21.8519 23.9701 21.7471 24.1172C21.6422 24.2644 21.5093 24.3894 21.3561 24.4852C21.2029 24.581 21.0323 24.6456 20.8541 24.6754C20.6758 24.7052 20.4935 24.6995 20.3174 24.6588Z" fill="#F857A6"/>
<path d="M40.7879 3.66748H3.20866C2.35892 3.67155 1.54515 4.01091 0.944287 4.61177C0.343427 5.21263 0.00406687 6.0264 0 6.87614L0 31.6242C0.00406687 32.4739 0.343427 33.2877 0.944287 33.8886C1.54515 34.4894 2.35892 34.8288 3.20866 34.8329H17.2463C17.0315 35.7523 16.4609 37.2389 14.9348 38.7685C14.8066 38.8966 14.7193 39.0599 14.6839 39.2376C14.6485 39.4153 14.6667 39.5996 14.736 39.767C14.8054 39.9344 14.9229 40.0775 15.0736 40.1782C15.2243 40.2788 15.4015 40.3325 15.5827 40.3324H28.4156C28.597 40.3328 28.7744 40.2794 28.9254 40.1789C29.0763 40.0784 29.1941 39.9353 29.2636 39.7678C29.3332 39.6003 29.3515 39.4159 29.3162 39.238C29.2809 39.0601 29.1935 38.8967 29.0652 38.7685C27.5425 37.2458 26.9565 35.754 26.7279 34.8329H40.7896C41.6389 34.8279 42.452 34.4882 43.0524 33.8875C43.6528 33.2868 43.9921 32.4735 43.9966 31.6242V6.87614C43.9912 6.02682 43.6514 5.21382 43.0508 4.61325C42.4502 4.01268 41.6372 3.67289 40.7879 3.66748ZM40.3308 27.4995H3.66581V7.33501H40.329V27.4995H40.3308Z" fill="#605DBA"/>
</g>
<defs>
<clipPath id="clip0_2101_386">
<rect width="44" height="44" fill="white"/>
</clipPath>
</defs>
</svg>
