<svg width="44" height="44" viewBox="0 0 44 44" fill="none" xmlns="http://www.w3.org/2000/svg">
<g clip-path="url(#clip0_2101_443)">
<path d="M22.0001 31.1662C24.0248 31.1662 25.6662 29.5248 25.6662 27.5001C25.6662 25.4754 24.0248 23.834 22.0001 23.834C19.9754 23.834 18.334 25.4754 18.334 27.5001C18.334 29.5248 19.9754 31.1662 22.0001 31.1662Z" fill="#F857A6"/>
<path d="M27.9589 42.166H16.0428C15.6781 42.166 15.3284 42.0211 15.0705 41.7633C14.8127 41.5054 14.6678 41.1557 14.6678 40.791V38.041C14.6692 36.7045 15.2007 35.423 16.1458 34.4779C17.0909 33.5328 18.3723 33.0013 19.7089 32.9999H24.2928C25.6295 33.0008 26.9112 33.5322 27.8564 34.4774C28.8016 35.4226 29.333 36.7043 29.3339 38.041V40.791C29.3339 41.1557 29.189 41.5054 28.9312 41.7633C28.6733 42.0211 28.3236 42.166 27.9589 42.166ZM33.4589 31.166H31.02C31.9402 32.0584 32.6709 33.1272 33.1685 34.3084C33.6662 35.4897 33.9204 36.7592 33.9161 38.041V38.4999H37.125C37.4888 38.4972 37.837 38.3515 38.0943 38.0942C38.3516 37.8369 38.4973 37.4888 38.5 37.1249V36.2088C38.5005 35.5466 38.3704 34.8908 38.1172 34.2789C37.8641 33.667 37.4928 33.111 37.0246 32.6426C36.5564 32.1743 36.0005 31.8028 35.3887 31.5494C34.7769 31.2961 34.1211 31.1658 33.4589 31.166ZM10.5411 31.166C9.87882 31.1656 9.22295 31.2957 8.61102 31.549C7.99909 31.8023 7.44311 32.1737 6.97489 32.6421C6.50667 33.1105 6.1354 33.6666 5.88232 34.2786C5.62924 34.8906 5.49932 35.5466 5.5 36.2088V37.1284C5.5027 37.4922 5.64843 37.8404 5.90571 38.0976C6.16299 38.3549 6.51116 38.5007 6.875 38.5034H10.0839V38.0445C10.0796 36.7627 10.3338 35.4931 10.8315 34.3119C11.3291 33.1306 12.0598 32.0618 12.98 31.1695L10.5411 31.166Z" fill="#F857A6"/>
<path d="M12.8338 29.3322C14.8585 29.3322 16.4999 27.6908 16.4999 25.6661C16.4999 23.6414 14.8585 22 12.8338 22C10.8091 22 9.16772 23.6414 9.16772 25.6661C9.16772 27.6908 10.8091 29.3322 12.8338 29.3322Z" fill="#F857A6"/>
<path d="M31.1661 29.3322C33.1908 29.3322 34.8322 27.6908 34.8322 25.6661C34.8322 23.6414 33.1908 22 31.1661 22C29.1414 22 27.5 23.6414 27.5 25.6661C27.5 27.6908 29.1414 29.3322 31.1661 29.3322Z" fill="#F857A6"/>
<path d="M4.675 29.8393C5.13815 29.4114 5.64512 29.0334 6.1875 28.7118C5.43675 27.0923 5.30532 25.2538 5.81803 23.544C6.33075 21.8342 7.4521 20.3714 8.9701 19.4322C10.4881 18.493 12.2976 18.1424 14.0565 18.4468C15.8154 18.7511 17.4019 19.6893 18.5161 21.084C19.5779 20.4801 20.7785 20.1625 22 20.1625C23.2215 20.1625 24.4221 20.4801 25.4839 21.084C26.5981 19.6893 28.1845 18.7511 29.9435 18.4468C31.7024 18.1424 33.5119 18.493 35.0299 19.4322C36.5479 20.3714 37.6692 21.8342 38.182 23.544C38.6947 25.2538 38.5632 27.0923 37.8125 28.7118C38.1609 28.9193 38.4956 29.1489 38.8145 29.3993C40.7536 28.1817 42.2674 26.3928 43.1473 24.2789C44.0272 22.165 44.2299 19.8303 43.7275 17.5965C43.225 15.3626 42.0422 13.3395 40.342 11.806C38.6417 10.2724 36.5077 9.3039 34.2341 9.03383C33.0238 6.85043 31.2507 5.03107 29.0993 3.76491C26.9478 2.49875 24.4964 1.832 22 1.83399C15.5014 1.83399 9.86391 6.3543 8.43906 12.5212C3.70219 13.0179 0 16.9968 0 21.8162C0 25.2416 1.89062 28.2116 4.675 29.8393Z" fill="#605DBA"/>
</g>
<defs>
<clipPath id="clip0_2101_443">
<rect width="44" height="44" fill="white"/>
</clipPath>
</defs>
</svg>
