<svg width="44" height="44" viewBox="0 0 44 44" fill="none" xmlns="http://www.w3.org/2000/svg">
<g clip-path="url(#clip0_2101_496)">
<path d="M12.3939 14.8689L11.7889 11.2596L12.0313 11.0189L11.2819 10.2489C10.7468 9.70768 10.3711 9.02957 10.1959 8.28892C10.0206 7.54828 10.0527 6.77368 10.2885 6.05004C10.3074 5.99504 10.3228 5.95894 10.3435 5.90394L10.1028 5.86785L8.55597 2.62285C8.44513 2.38616 8.26912 2.18595 8.04858 2.0457C7.82804 1.90545 7.57209 1.83096 7.31073 1.83096C7.04937 1.83096 6.79342 1.90545 6.57288 2.0457C6.35234 2.18595 6.17633 2.38616 6.0655 2.62285L4.53925 5.88848L1.15503 6.41613C0.906434 6.45791 0.674107 6.56722 0.483443 6.73212C0.292778 6.89702 0.151114 7.11116 0.0739344 7.35113C-0.00564313 7.59123 -0.0169255 7.84872 0.0413468 8.09486C0.0996191 8.341 0.225153 8.5661 0.403934 8.74504L2.89784 11.2939L2.31003 14.9033C2.27999 15.0997 2.29247 15.3002 2.34662 15.4912C2.40077 15.6823 2.49533 15.8596 2.62391 16.011C2.75248 16.1624 2.91207 16.2844 3.09188 16.3687C3.27168 16.4531 3.46751 16.4979 3.66612 16.5C3.90607 16.5013 4.14248 16.4422 4.35362 16.3282L7.35972 14.6421L10.3847 16.2921C10.6123 16.4156 10.8695 16.4741 11.1281 16.4611C11.3868 16.448 11.6368 16.364 11.8508 16.2182C12.0612 16.067 12.2246 15.8596 12.3222 15.6196C12.4198 15.3797 12.4476 15.1171 12.4025 14.8621L12.3939 14.8689ZM43.9261 7.29613C43.8472 7.05562 43.7022 6.84217 43.5076 6.68017C43.3131 6.51818 43.077 6.41417 42.8261 6.38004L39.435 5.86441L37.8882 2.61941C37.7775 2.38224 37.6015 2.18157 37.3808 2.04097C37.16 1.90037 36.9038 1.82568 36.6421 1.82568C36.3804 1.82568 36.1241 1.90037 35.9034 2.04097C35.6826 2.18157 35.5066 2.38224 35.396 2.61941L33.8732 5.88504L33.6721 5.92113C33.6721 5.94004 33.691 5.95723 33.691 5.97613C33.9375 6.69112 33.9806 7.46051 33.8155 8.19855C33.6504 8.9366 33.2836 9.6143 32.756 10.1561L31.9361 11L32.23 11.2939L31.6439 14.9033C31.6139 15.0997 31.6264 15.3002 31.6805 15.4912C31.7347 15.6823 31.8292 15.8596 31.9578 16.011C32.0864 16.1624 32.246 16.2844 32.4258 16.3687C32.6056 16.4531 32.8014 16.4979 33 16.5C33.24 16.5013 33.4764 16.4422 33.6875 16.3282L36.6936 14.6421L39.7186 16.2921C39.9462 16.4156 40.2034 16.4741 40.4621 16.4611C40.7207 16.448 40.9707 16.364 41.1847 16.2182C41.3938 16.066 41.5562 15.8583 41.6534 15.6187C41.7506 15.379 41.7788 15.1169 41.7347 14.8621L41.1297 11.2527L43.6236 8.68832C43.7973 8.50551 43.918 8.2789 43.9728 8.03276C44.0276 7.78662 44.0144 7.53021 43.9347 7.29098L43.9261 7.29613Z" fill="#F857A6"/>
<path d="M17.2185 18.3339C17.0196 18.3341 16.8231 18.2912 16.6424 18.2081C16.4618 18.125 16.3013 18.0037 16.172 17.8525C16.0428 17.7014 15.9479 17.524 15.8938 17.3327C15.8398 17.1413 15.8279 16.9405 15.859 16.7441L16.6513 11.7941L13.2344 8.31359C13.0573 8.1334 12.9333 7.90789 12.876 7.66183C12.8186 7.41577 12.8302 7.15867 12.9094 6.91875C12.9886 6.67883 13.1324 6.46537 13.3249 6.30181C13.5175 6.13825 13.7514 6.0309 14.001 5.99156L18.6571 5.26625L20.7385 0.7975C20.848 0.560943 21.0224 0.360375 21.2415 0.219176C21.4606 0.0779769 21.7153 0.00196465 21.976 0C22.2364 6.91051e-05 22.4914 0.074089 22.7114 0.213446C22.9314 0.352804 23.1073 0.551768 23.2186 0.787188L25.331 5.23875L29.9922 5.93484C30.2423 5.9717 30.4774 6.07677 30.6716 6.23851C30.8658 6.40025 31.0117 6.6124 31.0933 6.85165C31.1748 7.0909 31.1888 7.348 31.1337 7.59469C31.0787 7.84138 30.9567 8.06812 30.7811 8.25L27.3815 11.7528L28.2065 16.6977C28.2493 16.9524 28.2196 17.2141 28.1206 17.4527C28.0216 17.6913 27.8574 17.8972 27.6468 18.0468C27.4362 18.1964 27.1878 18.2837 26.9299 18.2986C26.672 18.3135 26.4151 18.2554 26.1886 18.1311L22.031 15.8538L17.8854 18.1603C17.6814 18.2737 17.4518 18.3328 17.2185 18.3322V18.3339Z" fill="#605DBA"/>
<path d="M7.33382 31.1662C9.35855 31.1662 10.9999 29.5248 10.9999 27.5001C10.9999 25.4754 9.35855 23.834 7.33382 23.834C5.30909 23.834 3.66772 25.4754 3.66772 27.5001C3.66772 29.5248 5.30909 31.1662 7.33382 31.1662Z" fill="#F857A6"/>
<path d="M12.2289 33.7339C11.2777 34.4504 10.5061 35.3781 9.97486 36.4438C9.44363 37.5096 9.16735 38.6842 9.16781 39.875V40.3339H1.375C1.01116 40.3312 0.662992 40.1855 0.405712 39.9282C0.148432 39.6709 0.00269972 39.3227 1.17272e-06 38.9589V38.0428C-0.000450581 37.3806 0.12962 36.7248 0.382778 36.1129C0.635935 35.501 1.00722 34.9449 1.47539 34.4766C1.94357 34.0083 2.49946 33.6368 3.11129 33.3834C3.72312 33.1301 4.37888 32.9998 5.0411 33H9.625C10.5439 33.0011 11.4447 33.255 12.2289 33.7339Z" fill="#F857A6"/>
<path d="M36.6661 31.1662C38.6908 31.1662 40.3322 29.5248 40.3322 27.5001C40.3322 25.4754 38.6908 23.834 36.6661 23.834C34.6414 23.834 33 25.4754 33 27.5001C33 29.5248 34.6414 31.1662 36.6661 31.1662Z" fill="#F857A6"/>
<path d="M43.9999 38.0411V38.9572C43.9968 39.3209 43.8509 39.6688 43.5937 39.926C43.3365 40.1832 42.9886 40.329 42.6249 40.3322H34.8338V39.875C34.8345 38.6841 34.5584 37.5094 34.0271 36.4436C33.4959 35.3778 32.7241 34.4502 31.7727 33.7339C32.5562 33.2548 33.4565 33.0008 34.3749 33H38.9588C39.6209 32.9998 40.2765 33.13 40.8882 33.3833C41.4999 33.6365 42.0557 34.0078 42.5239 34.476C42.992 34.9442 43.3634 35.5 43.6166 36.1117C43.8699 36.7234 44.0001 37.379 43.9999 38.0411Z" fill="#F857A6"/>
<path d="M22 32.084C25.0376 32.084 27.5 29.6216 27.5 26.584C27.5 23.5464 25.0376 21.084 22 21.084C18.9624 21.084 16.5 23.5464 16.5 26.584C16.5 29.6216 18.9624 32.084 22 32.084Z" fill="#605DBA"/>
<path d="M27.041 34.834H16.9571C15.6204 34.8349 14.3387 35.3663 13.3935 36.3115C12.4483 37.2567 11.9169 38.5384 11.916 39.8751V42.6251C11.916 42.9898 12.0609 43.3395 12.3187 43.5974C12.5766 43.8552 12.9263 44.0001 13.291 44.0001H30.7071C31.0718 44.0001 31.4215 43.8552 31.6794 43.5974C31.9372 43.3395 32.0821 42.9898 32.0821 42.6251V39.8751C32.0812 38.5384 31.5498 37.2567 30.6046 36.3115C29.6594 35.3663 28.3777 34.8349 27.041 34.834Z" fill="#605DBA"/>
</g>
<defs>
<clipPath id="clip0_2101_496">
<rect width="44" height="44" fill="white"/>
</clipPath>
</defs>
</svg>
