<svg width="30" height="30" viewBox="0 0 30 30" fill="none" xmlns="http://www.w3.org/2000/svg">
<g clip-path="url(#clip0_2101_588)">
<path d="M22.5 3.12549H2.49961C1.83696 3.12642 1.20171 3.39007 0.733146 3.85863C0.26458 4.3272 0.000930039 4.96245 0 5.6251L0 16.8751C0.000930039 17.5378 0.26458 18.173 0.733146 18.6416C1.20171 19.1101 1.83696 19.3738 2.49961 19.3747H22.5C23.1627 19.3738 23.7979 19.1101 24.2665 18.6416C24.735 18.173 24.9987 17.5378 24.9996 16.8751V5.6251C24.9987 4.96245 24.735 4.3272 24.2665 3.85863C23.7979 3.39007 23.1627 3.12642 22.5 3.12549ZM22.5 8.75049L13.875 13.1005C13.4511 13.3231 12.9792 13.439 12.5004 13.438C12.0156 13.4404 11.5381 13.3194 11.1129 13.0864L2.50078 8.75049V6.65049L11.9754 11.4259C12.1347 11.5107 12.3119 11.5561 12.4924 11.5584C12.6728 11.5606 12.8512 11.5196 13.0125 11.4388L22.5047 6.65049L22.5 8.75049Z" fill="#605DBA"/>
<path d="M27.5005 10.6255V16.8751C27.4989 18.2008 26.9716 19.4718 26.0342 20.4092C25.0968 21.3466 23.8258 21.8739 22.5001 21.8755H5.00049V24.3751C5.00142 25.0378 5.26507 25.673 5.73363 26.1416C6.2022 26.6101 6.83745 26.8738 7.5001 26.8747H27.5005C28.1631 26.8738 28.7984 26.6101 29.267 26.1416C29.7355 25.673 29.9992 25.0378 30.0001 24.3751V13.1251C29.9992 12.4624 29.7355 11.8272 29.267 11.3586C28.7984 10.8901 28.1631 10.6264 27.5005 10.6255Z" fill="#F857A6"/>
</g>
<defs>
<clipPath id="clip0_2101_588">
<rect width="30" height="30" fill="white"/>
</clipPath>
</defs>
</svg>
