<svg width="30" height="30" viewBox="0 0 30 30" fill="none" xmlns="http://www.w3.org/2000/svg">
<g clip-path="url(#clip0_2101_578)">
<path d="M1.25044 29.9908C1.00306 29.9904 0.761335 29.9168 0.555778 29.7792C0.350221 29.6416 0.190055 29.4461 0.0955093 29.2175C0.000963298 28.9889 -0.0237223 28.7375 0.0245702 28.4949C0.0728627 28.2522 0.191967 28.0294 0.366841 27.8544L10.4543 17.7763C10.689 17.542 11.0071 17.4104 11.3388 17.4106C11.6704 17.4109 11.9884 17.5428 12.2227 17.7775C12.457 18.0121 12.5886 18.3303 12.5884 18.6619C12.5881 18.9935 12.4562 19.3115 12.2215 19.5458L2.13403 29.624C2.01827 29.7404 1.88058 29.8328 1.72892 29.8957C1.57727 29.9587 1.41464 29.991 1.25044 29.9908Z" fill="#F857A6"/>
<path d="M29.3602 9.46886L20.522 0.62941C20.1052 0.231676 19.5512 0.00976562 18.9751 0.00976562C18.399 0.00976563 17.845 0.231676 17.4282 0.62941L16.2071 1.8505C15.7855 2.26945 15.4895 2.79803 15.3526 3.37645C15.2157 3.95487 15.2434 4.56005 15.4325 5.12355C15.5117 5.35646 15.5241 5.60687 15.4684 5.84648C15.4127 6.08608 15.2911 6.30533 15.1173 6.47941L11.529 10.063C11.2375 10.3548 10.8422 10.5191 10.4298 10.52H8.96025C8.50886 10.5188 8.06171 10.6071 7.64471 10.7799C7.2277 10.9527 6.84914 11.2065 6.53095 11.5267L5.93798 12.1196C5.73474 12.3227 5.5735 12.5639 5.4635 12.8293C5.3535 13.0947 5.29688 13.3792 5.29688 13.6665C5.29688 13.9538 5.3535 14.2383 5.4635 14.5038C5.5735 14.7692 5.73474 15.0103 5.93798 15.2134L14.7763 24.0517C14.9792 24.2552 15.2203 24.4167 15.4857 24.5269C15.7512 24.637 16.0357 24.6938 16.3231 24.6938C16.6105 24.6938 16.8951 24.637 17.1606 24.5269C17.426 24.4167 17.6671 24.2552 17.87 24.0517L18.463 23.4575C18.7831 23.1393 19.0369 22.7607 19.2097 22.3437C19.3825 21.9267 19.4708 21.4796 19.4696 21.0282V19.5634C19.4713 19.1495 19.6359 18.7529 19.9278 18.4595L23.5102 14.8759C23.6836 14.701 23.9026 14.5781 24.1422 14.5214C24.3819 14.4646 24.6327 14.4762 24.8661 14.5548C25.4293 14.7444 26.0343 14.7725 26.6126 14.6357C27.1909 14.499 27.7193 14.2031 28.138 13.7814L29.3591 12.5603C29.5621 12.3573 29.7232 12.1163 29.8331 11.8511C29.9429 11.5859 29.9995 11.3016 29.9995 11.0146C29.9995 10.7275 29.9429 10.4432 29.8331 10.178C29.7232 9.91279 29.5621 9.67182 29.3591 9.46886H29.3602Z" fill="#605DBA"/>
</g>
<defs>
<clipPath id="clip0_2101_578">
<rect width="30" height="30" fill="white"/>
</clipPath>
</defs>
</svg>
