<svg width="44" height="44" viewBox="0 0 44 44" fill="none" xmlns="http://www.w3.org/2000/svg">
<g clip-path="url(#clip0_2101_479)">
<path d="M30.6952 13.6439L28.6799 15.6592C29.0146 16.2949 29.2967 16.9568 29.5235 17.6385C30.3704 17.4905 31.2288 17.4169 32.0886 17.4185H32.3274C31.947 16.0957 31.3985 14.8271 30.6952 13.6439ZM0 21.9989C0.0034404 24.3618 0.514021 26.6965 1.49724 28.8451C2.48046 30.9937 3.91342 32.9063 5.69928 34.4536C7.48515 36.0008 9.58232 37.1467 11.8491 37.8139C14.1159 38.481 16.4994 38.6539 18.8387 38.3207C18.4283 37.4719 18.1031 36.5844 17.868 35.6714C17.4117 35.7234 16.9528 35.7481 16.4936 35.7453C12.848 35.7453 9.35181 34.2971 6.77403 31.7193C4.19625 29.1415 2.74807 25.6453 2.74807 21.9998C2.74807 18.3543 4.19625 14.858 6.77403 12.2803C9.35181 9.70249 12.848 8.2543 16.4936 8.2543C18.7094 8.2527 20.8919 8.79361 22.8504 9.82978L24.8658 7.81448C22.3357 6.30065 19.4419 5.50253 16.4936 5.50538C12.1211 5.51174 7.92964 7.25149 4.83788 10.3433C1.74611 13.435 0.00636252 17.6265 0 21.9989Z" fill="#F857A6"/>
<path d="M6.41357 21.999C6.41812 24.6711 7.48151 27.2326 9.37084 29.1222C11.2602 31.0119 13.8214 32.0757 16.4935 32.0807C16.8059 32.0804 17.1179 32.062 17.4282 32.0257C17.424 31.0822 17.5138 30.1406 17.6962 29.2149C17.2997 29.2893 16.897 29.3262 16.4935 29.3249C14.5492 29.3249 12.6845 28.5525 11.3097 27.1777C9.93488 25.8028 9.1625 23.9382 9.1625 21.9939C9.1625 20.0495 9.93488 18.1849 11.3097 16.81C12.6845 15.4352 14.5492 14.6628 16.4935 14.6628C16.9559 14.6545 17.4175 14.7029 17.868 14.8071L20.086 12.5891C18.9423 12.1364 17.7236 11.9033 16.4935 11.9019C13.8191 11.9082 11.2564 12.9746 9.36689 14.8673C7.47741 16.76 6.41539 19.3246 6.41357 21.999Z" fill="#F857A6"/>
<path d="M16.4935 18.3364C15.7686 18.3364 15.0601 18.5514 14.4574 18.9542C13.8547 19.3569 13.385 19.9293 13.1077 20.5991C12.8303 21.2688 12.7579 22.0057 12.8994 22.7167C13.0409 23.4276 13.3901 24.0806 13.9028 24.593C14.4155 25.1054 15.0686 25.4543 15.7796 25.5955C16.4906 25.7368 17.2275 25.6639 17.8971 25.3863C18.5667 25.1087 19.1389 24.6387 19.5414 24.0358C19.9439 23.4329 20.1585 22.7242 20.1582 21.9994C20.155 21.0286 19.7678 20.0985 19.0812 19.4122C18.3946 18.7259 17.4643 18.3391 16.4935 18.3364ZM16.4935 22.9168C16.3124 22.9168 16.1354 22.8631 15.9848 22.7625C15.8342 22.6619 15.7168 22.5189 15.6475 22.3515C15.5782 22.1842 15.56 22.0001 15.5954 21.8224C15.6307 21.6448 15.7179 21.4816 15.846 21.3536C15.9741 21.2255 16.1372 21.1383 16.3149 21.1029C16.4925 21.0676 16.6766 21.0857 16.844 21.1551C17.0113 21.2244 17.1543 21.3417 17.2549 21.4923C17.3556 21.6429 17.4093 21.82 17.4093 22.0011C17.4104 22.1217 17.3875 22.2413 17.3419 22.3529C17.2963 22.4645 17.2289 22.5659 17.1436 22.6512C17.0583 22.7364 16.9569 22.8038 16.8453 22.8495C16.7337 22.8951 16.6141 22.918 16.4935 22.9168Z" fill="#F857A6"/>
<path d="M16.5108 23.3734C16.239 23.3736 15.9733 23.2933 15.7471 23.1425C15.521 22.9917 15.3447 22.7772 15.2404 22.5262C15.1361 22.2752 15.1086 21.9989 15.1614 21.7323C15.2141 21.4657 15.3447 21.2207 15.5366 21.0282L27.4481 9.11336C27.7079 8.86648 28.054 8.73088 28.4124 8.73546C28.7708 8.74005 29.1132 8.88447 29.3667 9.13792C29.6201 9.39138 29.7645 9.73381 29.7691 10.0922C29.7737 10.4506 29.6381 10.7966 29.3912 11.0565L17.4798 22.9679C17.2232 23.2261 16.8747 23.3719 16.5108 23.3734Z" fill="#605DBA"/>
<path d="M33.4629 11.0036H28.8808C28.5163 11.0036 28.1667 10.8588 27.9089 10.6011C27.6512 10.3433 27.5064 9.99369 27.5064 9.62916V5.04876C27.5066 4.68407 27.6504 4.33414 27.9067 4.07461L31.5713 0.409949C31.7635 0.217508 32.0086 0.0864293 32.2753 0.0333057C32.5421 -0.0198178 32.8186 0.00740292 33.0699 0.111522C33.3212 0.215641 33.5359 0.391976 33.6869 0.618204C33.8379 0.844433 33.9184 1.11038 33.9182 1.38238V4.59175H37.1276C37.3996 4.59154 37.6655 4.67203 37.8918 4.82305C38.118 4.97406 38.2943 5.1888 38.3985 5.44008C38.5026 5.69137 38.5298 5.96789 38.4767 6.23466C38.4235 6.50142 38.2925 6.74642 38.1 6.93865L34.4354 10.6033C34.1771 10.8604 33.8273 11.0044 33.4629 11.0036ZM32.0885 20.1679C29.7322 20.1675 27.4287 20.8659 25.4694 22.1748C23.5101 23.4836 21.9829 25.344 21.0809 27.5209C20.179 29.6977 19.9428 32.0931 20.4023 34.4041C20.8618 36.7151 21.9962 38.838 23.6623 40.5043C25.3283 42.1705 27.451 43.3053 29.762 43.7651C32.0729 44.225 34.4684 43.9891 36.6453 43.0875C38.8223 42.1859 40.6829 40.6589 41.9921 38.6998C43.3012 36.7406 43.9999 34.4373 43.9999 32.081C43.9972 28.9226 42.7414 25.8943 40.5082 23.6608C38.275 21.4272 35.2469 20.171 32.0885 20.1679ZM37.2204 29.808L31.2689 36.2216C31.0274 36.4831 30.6938 36.6407 30.3385 36.6612C29.9831 36.6817 29.6336 36.5635 29.3636 36.3315L26.1559 33.5826C26.0176 33.4656 25.9038 33.3223 25.8211 33.1611C25.7383 32.9999 25.6883 32.8239 25.6738 32.6433C25.6593 32.4627 25.6807 32.281 25.7367 32.1087C25.7927 31.9363 25.8822 31.7768 26.0001 31.6392C26.118 31.5016 26.262 31.3887 26.4237 31.3069C26.5854 31.2251 26.7616 31.1761 26.9423 31.1628C27.123 31.1494 27.3046 31.1718 27.4766 31.2289C27.6486 31.2859 27.8076 31.3764 27.9445 31.4951L30.1505 33.385L35.2085 27.9404C35.4564 27.673 35.8004 27.5149 36.1648 27.5011C36.5292 27.4872 36.8842 27.6187 37.1516 27.8666C37.4191 28.1144 37.5772 28.4584 37.591 28.8228C37.6049 29.1873 37.4734 29.5422 37.2255 29.8097L37.2204 29.808Z" fill="#605DBA"/>
</g>
<defs>
<clipPath id="clip0_2101_479">
<rect width="44" height="44" fill="white"/>
</clipPath>
</defs>
</svg>
