<svg width="44" height="44" viewBox="0 0 44 44" fill="none" xmlns="http://www.w3.org/2000/svg">
<path d="M30.5612 16.261C30.5801 16.041 30.5973 15.821 30.5973 15.5735C30.5973 15.326 30.5766 15.1146 30.5612 14.886L32.0823 13.7654C32.5258 13.4363 32.8339 12.9566 32.9488 12.4164C33.0637 11.8762 32.9774 11.3126 32.7062 10.8315L31.3501 8.42867C31.0825 7.93751 30.6373 7.56715 30.1057 7.39335C29.5741 7.21954 28.9961 7.25543 28.4901 7.49367L26.8126 8.28258C26.479 8.0508 26.1298 7.84234 25.7676 7.65867L25.5751 5.70102C25.5254 5.14629 25.2703 4.63012 24.8598 4.25367C24.4494 3.87723 23.9131 3.66765 23.3562 3.66602H20.6423C20.085 3.66722 19.5483 3.87661 19.1375 4.25309C18.7267 4.62958 18.4713 5.14599 18.4216 5.70102L18.2377 7.66211C17.8737 7.84557 17.5228 8.05403 17.1876 8.28602L15.5015 7.49711C14.9948 7.26307 14.4183 7.22939 13.8878 7.40282C13.3573 7.57626 12.9121 7.94396 12.6415 8.43211L11.2923 10.8521C11.0184 11.3326 10.9306 11.8969 11.0457 12.4378C11.1607 12.9788 11.4705 13.4586 11.9162 13.786L13.4373 14.9049C13.4166 15.1249 13.4012 15.3449 13.4012 15.5924C13.4012 15.8399 13.4201 16.053 13.4373 16.2799L11.9162 17.3988C11.4738 17.7261 11.1664 18.2038 11.0518 18.742C10.9372 19.2801 11.0233 19.8416 11.294 20.3207L12.6501 22.7407C12.9201 23.2294 13.3653 23.5977 13.896 23.7712C14.4267 23.9447 15.0035 23.9106 15.5101 23.6757L17.1962 22.8868C17.5297 23.1186 17.8789 23.327 18.2412 23.5107L18.4251 25.4718C18.4748 26.0265 18.7298 26.5427 19.1403 26.9191C19.5508 27.2956 20.087 27.5052 20.644 27.5068H23.3579C23.9151 27.5056 24.4518 27.2962 24.8626 26.9197C25.2735 26.5432 25.5288 26.0268 25.5785 25.4718L25.7624 23.5107C26.1247 23.327 26.4739 23.1186 26.8074 22.8868L28.4935 23.6757C28.9995 23.9139 29.5775 23.9498 30.1091 23.776C30.6408 23.6022 31.0859 23.2319 31.3535 22.7407L32.7079 20.3207C32.9817 19.8402 33.0695 19.2759 32.9545 18.735C32.8394 18.194 32.5296 17.7142 32.084 17.3868L30.5612 16.261ZM26.584 15.5838C26.584 16.4904 26.3151 17.3767 25.8114 18.1305C25.3078 18.8843 24.5918 19.4719 23.7542 19.8188C22.9166 20.1658 21.995 20.2565 21.1058 20.0797C20.2166 19.9028 19.3998 19.4662 18.7588 18.8251C18.1177 18.1841 17.6811 17.3673 17.5042 16.4781C17.3274 15.5889 17.4181 14.6672 17.7651 13.8296C18.112 12.992 18.6996 12.2761 19.4534 11.7724C20.2072 11.2688 21.0935 10.9999 22.0001 10.9999C23.2155 11.0008 24.3809 11.4841 25.2404 12.3435C26.0998 13.203 26.5831 14.3684 26.584 15.5838Z" fill="#F857A6"/>
<path d="M38.5 29.334H5.5C4.04131 29.334 2.64236 29.9134 1.61091 30.9449C0.579463 31.9763 0 33.3753 0 34.834C0 36.2927 0.579463 37.6916 1.61091 38.7231C2.64236 39.7545 4.04131 40.334 5.5 40.334H38.5C39.9587 40.334 41.3576 39.7545 42.3891 38.7231C43.4205 37.6916 44 36.2927 44 34.834C44 33.3753 43.4205 31.9763 42.3891 30.9449C41.3576 29.9134 39.9587 29.334 38.5 29.334ZM7.33391 36.6662C6.97112 36.6662 6.61649 36.5586 6.31486 36.357C6.01324 36.1554 5.77819 35.8689 5.63943 35.5337C5.50068 35.1985 5.46446 34.8296 5.53536 34.4739C5.60627 34.1181 5.7811 33.7913 6.03775 33.5349C6.2944 33.2785 6.62133 33.104 6.97718 33.0334C7.33304 32.9628 7.70183 32.9994 8.0369 33.1385C8.37198 33.2775 8.65827 33.5128 8.85958 33.8147C9.06088 34.1165 9.16815 34.4712 9.16781 34.834C9.16736 35.3201 8.97394 35.7861 8.63007 36.1296C8.28619 36.4732 7.81999 36.6662 7.33391 36.6662ZM16.5 36.6662C16.1372 36.6662 15.7826 36.5586 15.481 36.357C15.1793 36.1554 14.9443 35.8689 14.8055 35.5337C14.6668 35.1985 14.6306 34.8296 14.7015 34.4739C14.7724 34.1181 14.9472 33.7913 15.2038 33.5349C15.4605 33.2785 15.7874 33.104 16.1433 33.0334C16.4991 32.9628 16.8679 32.9994 17.203 33.1385C17.5381 33.2775 17.8244 33.5128 18.0257 33.8147C18.227 34.1165 18.3342 34.4712 18.3339 34.834C18.3335 35.3201 18.14 35.7861 17.7962 36.1296C17.4523 36.4732 16.9861 36.6662 16.5 36.6662ZM27.5 36.6662C27.1372 36.6662 26.7826 36.5586 26.481 36.357C26.1793 36.1554 25.9443 35.8689 25.8055 35.5337C25.6668 35.1985 25.6306 34.8296 25.7015 34.4739C25.7724 34.1181 25.9472 33.7913 26.2038 33.5349C26.4605 33.2785 26.7874 33.104 27.1433 33.0334C27.4991 32.9628 27.8679 32.9994 28.203 33.1385C28.5381 33.2775 28.8244 33.5128 29.0257 33.8147C29.227 34.1165 29.3342 34.4712 29.3339 34.834C29.3335 35.3201 29.14 35.7861 28.7962 36.1296C28.4523 36.4732 27.9861 36.6662 27.5 36.6662ZM36.6661 36.6662C36.3033 36.6662 35.9487 36.5586 35.6471 36.357C35.3454 36.1554 35.1104 35.8689 34.9716 35.5337C34.8329 35.1985 34.7966 34.8296 34.8675 34.4739C34.9385 34.1181 35.1133 33.7913 35.3699 33.5349C35.6266 33.2785 35.9535 33.104 36.3094 33.0334C36.6652 32.9628 37.034 32.9994 37.3691 33.1385C37.7042 33.2775 37.9905 33.5128 38.1918 33.8147C38.3931 34.1165 38.5003 34.4712 38.5 34.834C38.4995 35.3201 38.3061 35.7861 37.9623 36.1296C37.6184 36.4732 37.1522 36.6662 36.6661 36.6662Z" fill="#605DBA"/>
</svg>
