<svg width="30" height="30" viewBox="0 0 30 30" fill="none" xmlns="http://www.w3.org/2000/svg">
<g clip-path="url(#clip0_2101_583)">
<path d="M14.9994 12.5005C11.0228 12.5051 7.21029 14.0869 4.39837 16.8989C1.58644 19.7108 0.00465198 23.5232 0 27.4999C0.000930651 28.1627 0.264731 28.7981 0.733532 29.2667C1.20233 29.7353 1.83785 29.9988 2.50068 29.9994H27.4981C28.161 29.9988 28.7965 29.7353 29.2653 29.2667C29.7341 28.7981 29.9979 28.1627 29.9988 27.4999C29.9988 19.2303 23.2702 12.5005 14.9994 12.5005ZM14.9994 26.2496C14.0105 26.2496 13.0437 25.9563 12.2215 25.4069C11.3992 24.8574 10.7583 24.0765 10.3798 23.1629C10.0014 22.2492 9.90236 21.2438 10.0953 20.2739C10.2882 19.3039 10.7645 18.413 11.4637 17.7137C12.163 17.0144 13.054 16.5382 14.0239 16.3452C14.9939 16.1523 15.9992 16.2513 16.9129 16.6298C17.8266 17.0082 18.6075 17.6491 19.1569 18.4714C19.7064 19.2937 19.9996 20.2604 19.9996 21.2494C19.9984 22.5751 19.4712 23.8462 18.5337 24.7837C17.5963 25.7211 16.3252 26.2483 14.9994 26.2496Z" fill="#F857A6"/>
<path d="M3.91987 13.7508C3.39763 13.753 2.8861 13.6027 2.44805 13.3183C2.17378 13.14 1.91471 12.9394 1.67347 12.7184C1.03145 12.1312 0.549066 11.3906 0.271544 10.5661C-0.00597684 9.7415 -0.0695391 8.85996 0.086818 8.0041C0.63875 5.0757 3.89878 3.17148 6.30454 1.99262C9.0141 0.677235 11.9876 -0.00401634 14.9995 0.000510696C19.074 0.000510696 23.1859 1.24499 26.2795 3.41522C27.6799 4.39956 29.3521 5.77177 29.8419 7.68185C30.065 8.58041 30.0421 9.52248 29.7755 10.4091C29.5089 11.2957 29.0084 12.0942 28.3267 12.7207C28.0897 12.9365 27.8354 13.1325 27.5662 13.3066C27.0933 13.6102 26.5398 13.7641 25.9781 13.7482C25.4164 13.7323 24.8725 13.5474 24.4175 13.2176L20.0501 10.0993C19.0751 9.40327 18.6861 8.17519 19.1033 7.10883C19.1255 7.04672 19.1513 6.99164 19.1783 6.92602C16.4651 6.02357 13.5327 6.02357 10.8196 6.92602L10.8981 7.10648C11.3165 8.17285 10.9239 9.40327 9.95128 10.097L5.58035 13.2152C5.09804 13.5635 4.51827 13.7508 3.92339 13.7508H3.91987Z" fill="#605DBA"/>
</g>
<defs>
<clipPath id="clip0_2101_583">
<rect width="30" height="30" fill="white"/>
</clipPath>
</defs>
</svg>
