<svg width="20" height="45" viewBox="0 0 20 45" fill="none" xmlns="http://www.w3.org/2000/svg">
<path d="M7.81256 19.0931V43.1267C7.81256 43.6102 8.00463 44.0739 8.34651 44.4159C8.68836 44.7578 9.15205 44.9497 9.63555 44.9497C10.119 44.9497 10.5827 44.7578 10.9246 44.4159C11.2665 44.0739 11.4585 43.6102 11.4585 43.1267V19.0931C13.8123 18.6396 15.9124 17.3251 17.349 15.4063C18.7854 13.4875 19.4553 11.1021 19.2275 8.71599C18.9996 6.32984 17.8908 4.11429 16.1171 2.5019C14.3434 0.889515 12.0325 -0.00390625 9.63555 -0.00390625C7.23855 -0.00390625 4.92762 0.889515 3.15399 2.5019C1.38037 4.11429 0.271391 6.32984 0.0436303 8.71599C-0.184166 11.1021 0.485615 13.4875 1.92217 15.4063C3.35869 17.3251 5.45885 18.6396 7.81256 19.0931ZM9.63555 3.646C10.8202 3.646 11.9783 3.99731 12.9634 4.65551C13.9484 5.3137 14.7162 6.2492 15.1695 7.34373C15.6229 8.43826 15.7415 9.64266 15.5103 10.8046C15.2792 11.9665 14.7086 13.0338 13.8709 13.8715C13.0332 14.7092 11.9658 15.2796 10.8039 15.5107C9.64194 15.7418 8.43757 15.6231 7.34308 15.1697C6.24858 14.7163 5.31312 13.9485 4.65495 12.9634C3.99683 11.9784 3.64559 10.8203 3.64566 9.63555C3.64751 8.04753 4.27919 6.52508 5.40212 5.40222C6.52505 4.27936 8.04754 3.64775 9.63555 3.646Z" fill="url(#paint0_linear_2120_15)"/>
<defs>
<linearGradient id="paint0_linear_2120_15" x1="-1.69394e-05" y1="22.4729" x2="19.2711" y2="22.4729" gradientUnits="userSpaceOnUse">
<stop stop-color="#170C85"/>
<stop offset="1" stop-color="#EE2A4A"/>
</linearGradient>
</defs>
</svg>
